<svg version="1.1" viewBox="0.0 0.0 562.1181102362204 132.67191601049868" fill="none" stroke="none" stroke-linecap="square" stroke-miterlimit="10" xmlns:xlink="http://www.w3.org/1999/xlink" xmlns="http://www.w3.org/2000/svg"><clipPath id="p.0"><path d="m0 0l562.1181 0l0 132.67192l-562.1181 0l0 -132.67192z" clip-rule="nonzero"/></clipPath><g clip-path="url(#p.0)"><path fill="#000000" fill-opacity="0.0" d="m0 0l562.1181 0l0 132.67192l-562.1181 0z" fill-rule="evenodd"/><path fill="#000000" fill-opacity="0.0" d="m-9.692571 4.1076117l583.49603 0l0 124.44094l-583.49603 0z" fill-rule="evenodd"/><path fill="#d3d3d3" d="m26.166803 97.354485q-6.578125 0 -11.703124 -2.953125q-5.109375 -2.953125 -7.96875 -8.0625q-2.8593752 -5.109375 -2.8593752 -11.703125q0 -6.75 2.8593752 -11.90625q2.859375 -5.15625 7.96875 -8.140625q5.124999 -3.0 11.703124 -3.0q8.406252 0 14.125002 4.421875q5.71875 4.421875 7.28125 12.140625l-12.390625 0q-0.78125 -3.046875 -3.250002 -4.765625q-2.46875 -1.734375 -5.84375 -1.734375q-3.03125 0 -5.421875 1.515625q-2.375 1.515625 -3.71875 4.421875q-1.343749 2.890625 -1.343749 6.875q0 3.046875 0.76562405 5.4375q0.78125 2.375 2.171875 4.0625q1.390625 1.6875 3.34375 2.5625q1.953125 0.859375 4.203125 0.859375q2.25 0 4.109375 -0.78125q1.8593769 -0.78125 3.156252 -2.203125q1.3125 -1.4375 1.828125 -3.515625l12.390625 0q-1.5625 7.53125 -7.328125 12.0q-5.75 4.46875 -14.078127 4.46875zm31.459764 -1.046875l0 -62.390625l11.703121 0l0 62.390625l-11.703121 0zm43.762234 1.046875q-6.234375 0 -11.21875 -2.90625q-4.984375 -2.90625 -7.890625 -8.0625q-2.90625 -5.15625 -2.90625 -11.828125q0 -6.84375 2.90625 -12.0q2.90625 -5.15625 7.921875 -8.0625q5.03125 -2.90625 11.28125 -2.90625q6.3125 0 11.296875 2.90625q4.984375 2.90625 7.890625 8.0625q2.90625 5.15625 2.90625 11.90625q0 6.765625 -2.90625 11.921875q-2.90625 5.15625 -7.9375 8.0625q-5.015625 2.90625 -11.34375 2.90625zm0 -10.140625q2.953125 0 5.234375 -1.390625q2.296875 -1.390625 3.640625 -4.25q1.34375 -2.859375 1.34375 -7.109375q0 -4.234375 -1.34375 -7.046875q-1.34375 -2.828125 -3.640625 -4.25q-2.28125 -1.4375 -5.140625 -1.4375q-2.78125 0 -5.125 1.4375q-2.328125 1.421875 -3.671875 4.25q-1.34375 2.8125 -1.34375 7.046875q0 4.25 1.34375 7.109375q1.34375 2.859375 3.640625 4.25q2.296875 1.390625 5.0625 1.390625zm48.53225 10.140625q-5.296875 0 -9.0625 -2.203125q-3.765625 -2.21875 -5.765625 -6.5q-1.984375 -4.296875 -1.984375 -10.625l0 -25.390625l11.6875 0l0 24.171875q0 5.28125 2.203125 7.96875q2.21875 2.6875 6.8125 2.6875q2.953125 0 5.203125 -1.34375q2.25 -1.34375 3.59375 -3.890625q1.34375 -2.5625 1.34375 -6.28125l0 -23.3125l11.609375 0l0 43.671875l-10.21875 0l-0.953125 -7.109375l0 0q-1.90625 3.734375 -5.640625 5.953125q-3.71875 2.203125 -8.828125 2.203125zm56.48967 0q-5.96875 0 -10.703125 -2.953125q-4.71875 -2.953125 -7.40625 -8.140625q-2.6875 -5.203125 -2.6875 -11.703125q0 -6.671875 2.734375 -11.828125q2.734375 -5.15625 7.53125 -8.140625q4.8125 -3.0 10.796875 -3.0q4.671875 0 8.21875 1.734375q3.5625 1.734375 5.734375 4.9375l0 -24.34375l11.703125 0l0 62.390625l-10.40625 0l-1.296875 -5.984375l0 0q-1.296875 1.828125 -3.25 3.484375q-1.953125 1.640625 -4.640625 2.59375q-2.6875 0.953125 -6.328125 0.953125zm2.78125 -10.234375q3.46875 0 6.109375 -1.59375q2.640625 -1.609375 4.109375 -4.46875q1.484375 -2.859375 1.484375 -6.59375q0 -3.71875 -1.484375 -6.578125q-1.46875 -2.859375 -4.109375 -4.453125q-2.640625 -1.609375 -6.109375 -1.609375q-3.296875 0 -5.984375 1.609375q-2.6875 1.59375 -4.203125 4.453125q-1.515625 2.859375 -1.515625 6.5q0 3.8125 1.515625 6.671875q1.515625 2.859375 4.15625 4.46875q2.65625 1.59375 6.03125 1.59375zm55.713028 10.234375q-6.578125 0 -11.703125 -2.953125q-5.109375 -2.953125 -7.96875 -8.0625q-2.859375 -5.109375 -2.859375 -11.703125q0 -6.75 2.859375 -11.90625q2.859375 -5.15625 7.96875 -8.140625q5.125 -3.0 11.703125 -3.0q8.40625 0 14.125 4.421875q5.71875 4.421875 7.28125 12.140625l-12.390625 0q-0.78125 -3.046875 -3.25 -4.765625q-2.46875 -1.734375 -5.84375 -1.734375q-3.03125 0 -5.421875 1.515625q-2.375 1.515625 -3.71875 4.421875q-1.34375 2.890625 -1.34375 6.875q0 3.046875 0.765625 5.4375q0.78125 2.375 2.171875 4.0625q1.390625 1.6875 3.34375 2.5625q1.953125 0.859375 4.203125 0.859375q2.25 0 4.109375 -0.78125q1.859375 -0.78125 3.15625 -2.203125q1.3125 -1.4375 1.828125 -3.515625l12.390625 0q-1.5625 7.53125 -7.328125 12.0q-5.75 4.46875 -14.078125 4.46875zm52.084747 0q-6.234375 0 -11.21875 -2.90625q-4.984375 -2.90625 -7.890625 -8.0625q-2.90625 -5.15625 -2.90625 -11.828125q0 -6.84375 2.90625 -12.0q2.90625 -5.15625 7.921875 -8.0625q5.03125 -2.90625 11.28125 -2.90625q6.3125 0 11.296875 2.90625q4.984375 2.90625 7.890625 8.0625q2.90625 5.15625 2.90625 11.90625q0 6.765625 -2.90625 11.921875q-2.90625 5.15625 -7.9375 8.0625q-5.015625 2.90625 -11.34375 2.90625zm0 -10.140625q2.953125 0 5.234375 -1.390625q2.296875 -1.390625 3.640625 -4.25q1.34375 -2.859375 1.34375 -7.109375q0 -4.234375 -1.34375 -7.046875q-1.34375 -2.828125 -3.640625 -4.25q-2.28125 -1.4375 -5.140625 -1.4375q-2.78125 0 -5.125 1.4375q-2.328125 1.421875 -3.671875 4.25q-1.34375 2.8125 -1.34375 7.046875q0 4.25 1.34375 7.109375q1.34375 2.859375 3.640625 4.25q2.296875 1.390625 5.0625 1.390625zm32.23535 9.09375l0 -43.671875l10.3125 0l0.859375 7.109375l0 0q2.0 -3.640625 5.671875 -5.890625q3.6875 -2.265625 8.8125 -2.265625q5.453125 0 9.171875 2.265625q3.734375 2.25 5.6875 6.578125q1.953125 4.328125 1.953125 10.65625l0 25.21875l-11.625 0l0 -24.09375q0 -5.203125 -2.203125 -7.96875q-2.203125 -2.765625 -6.796875 -2.765625q-2.953125 0 -5.25 1.390625q-2.296875 1.375 -3.59375 3.9375q-1.296875 2.546875 -1.296875 6.1875l0 23.3125l-11.703125 0zm73.138824 0q-4.59375 0 -8.015625 -1.421875q-3.421875 -1.4375 -5.328125 -4.765625q-1.90625 -3.34375 -1.90625 -9.15625l0 -18.53125l-7.453125 0l0 -9.796875l7.453125 0l1.296875 -11.875l10.40625 0l0 11.875l11.515625 0l0 9.796875l-11.515625 0l0 18.703125q0 2.953125 1.296875 4.078125q1.296875 1.125 4.421875 1.125l5.71875 0l0 9.96875l-7.890625 0zm32.584686 1.046875q-5.46875 0 -9.015625 -1.78125q-3.546875 -1.78125 -5.25 -4.765625q-1.6875 -3.0 -1.6875 -6.625q0 -4.0 2.03125 -7.03125q2.046875 -3.03125 6.15625 -4.765625q4.125 -1.734375 10.359375 -1.734375l10.828125 0q0 -3.203125 -0.859375 -5.328125q-0.859375 -2.125 -2.6875 -3.15625q-1.8125 -1.046875 -4.84375 -1.046875q-3.296875 0 -5.59375 1.4375q-2.296875 1.421875 -2.8125 4.375l-11.359375 0q0.4375 -4.6875 3.078125 -8.109375q2.640625 -3.421875 7.015625 -5.328125q4.375 -1.90625 9.75 -1.90625q6.15625 0 10.65625 2.078125q4.515625 2.078125 6.9375 5.984375q2.421875 3.90625 2.421875 9.625l0 27.03125l-9.875 0l-1.296875 -6.671875l0 0q-0.953125 1.734375 -2.265625 3.125q-1.296875 1.375 -3.03125 2.421875q-1.71875 1.03125 -3.890625 1.59375q-2.171875 0.578125 -4.765625 0.578125zm2.765625 -9.015625q2.265625 0 4.03125 -0.828125q1.78125 -0.828125 3.078125 -2.25q1.296875 -1.4375 2.03125 -3.296875q0.75 -1.859375 1.0 -4.03125l0 -0.078125l-8.921875 0q-2.6875 0 -4.375 0.65625q-1.6875 0.640625 -2.46875 1.859375q-0.78125 1.203125 -0.78125 2.765625q0 1.734375 0.78125 2.859375q0.78125 1.125 2.25 1.734375q1.46875 0.609375 3.375 0.609375zm33.546234 7.96875l0 -43.671875l11.6874695 0l0 43.671875l-11.6874695 0zm5.890625 -49.65625q-3.125 0 -5.171875 -1.859375q-2.03125 -1.859375 -2.03125 -4.71875q0 -2.859375 2.03125 -4.71875q2.046875 -1.875 5.171875 -1.875q3.203125 0 5.2343445 1.875q2.046875 1.859375 2.046875 4.71875q0 2.859375 -2.046875 4.71875q-2.0312195 1.859375 -5.2343445 1.859375zm17.587616 49.65625l0 -43.671875l10.3125 0l0.859375 7.109375l0 0q2.0 -3.640625 5.671875 -5.890625q3.6875 -2.265625 8.8125 -2.265625q5.453125 0 9.171875 2.265625q3.734375 2.25 5.6875 6.578125q1.953125 4.328125 1.953125 10.65625l0 25.21875l-11.625 0l0 -24.09375q0 -5.203125 -2.203125 -7.96875q-2.203125 -2.765625 -6.796875 -2.765625q-2.953125 0 -5.25 1.390625q-2.296875 1.375 -3.59375 3.9375q-1.296875 2.546875 -1.296875 6.1875l0 23.3125l-11.703125 0z" fill-rule="nonzero"/></g></svg>